<svg xmlns="http://www.w3.org/2000/svg" version="1.1" xmlns:xlink="http://www.w3.org/1999/xlink" xmlns:svgjs="http://svgjs.com/svgjs" width="378" height="378"><svg xmlns="http://www.w3.org/2000/svg" width="378" height="378" viewBox="0 0 378 378">
  <defs>
    <style>
      .cls-1 {
        fill: #171717;
        stroke: #ededed;
        stroke-linejoin: round;
        stroke-width: 2px;
        opacity: 0.5;
      }

      .cls-1, .cls-2, .cls-3 {
        fill-rule: evenodd;
      }

      .cls-2 {
        fill: #444;
      }

      .cls-2, .cls-3 {
        stroke: #000;
        stroke-width: 1px;
      }

      .cls-3 {
        fill: #da0037;
      }
    </style>
  </defs>
  <path id="SvgjsPath1002" class="cls-1" d="M250.184,283.082c-4.031,8.639-10.271,15.551-17.662,15.551-1.152,0-2.208-.1-3.36-0.192,7.295-15.935,16.895-36.862,16.895-42.237,0-5.568-3.552-10.655-11.04-10.655-14.5,0-26.494,28.51-37.437,45.116a33.235,33.235,0,0,0-5.759-.672c-1.632,0-2.784,3.552-.672,3.552a13.467,13.467,0,0,1,3.935.672c-3.647,4.992-7.3,8.255-10.847,8.255-2.88,0-2.976-2.4-1.248-4.511,0.96-1.056-1.536-3.84-2.5-3.264-2.4,1.44-4.511,3.936-4.511,6.432,0,0-.576,7.871,9.215,7.871,6.432,0,12.575-4.7,18.335-11.423,3.935,1.728,8.351,3.648,12.959,5.183-2.784,6.24-4.7,10.848-4.7,12.1,0,3.167,9.215,4.991,9.215,2.879,0-1.056,2.112-5.951,5.088-12.575a45.417,45.417,0,0,0,4.992.384c10.463,0,17.758-8.639,23.422-20.446C255.176,283.754,250.856,281.738,250.184,283.082Zm-43.2,10.175c12.672-16.991,22.943-41.661,28.03-41.661,2.3,0,2.5,1.44,2.4,2.784,0,3.552-10.655,25.822-18.238,42.333C214.955,295.753,210.827,294.409,206.987,293.257ZM329.777,313.8a4.96,4.96,0,0,1-2.016.672c-0.96,0-1.824-.48-1.824-2.3,0-8.928,23.231-49.533,23.231-58.556a7.606,7.606,0,0,0-7.68-7.871c-5.759,0-14.879,10.943-22.462,22.462,2.688-6.432,4.7-11.807,4.607-14.591a7.554,7.554,0,0,0-7.679-7.871c-6.432,0-17.087,13.823-25.15,26.686,4.9-10.848,9.6-20.639,11.615-23.615,0.96-1.824-3.648-3.167-6.816-3.167h-0.48c-31.773.1-45.98,16.7-45.98,25.15,0,4.8,3.264,8.831,10.271,8.831a20.353,20.353,0,0,0,8.543-2.112c0.864-.384-0.48-3.071-1.439-2.784a19.924,19.924,0,0,1-4.416.576c-2.112,0-3.072-1.535-3.072-3.551,0-9.024,18.047-21.6,31.774-21.791-7.2,13.727-23.71,50.109-23.71,55.292,0,3.168,9.887,4.992,9.887,2.88,0-1.344,1.152-4.9,2.976-9.7,8.255-17.855,25.246-41.565,29.757-41.565,0.864,0,1.248.672,1.248,1.92,0,4.415-18.91,43.2-18.91,46.46,0,2.88,9.791,5.28,9.791,2.5q0.144-.576.288-1.44c5.856-17.567,27.838-49.436,33.022-49.436,0.96,0,1.247.672,1.247,1.92,0,4.415-20.35,40.893-20.35,52.22,0,9.023,7.583,8.735,7.583,8.735a14.542,14.542,0,0,0,7.968-2.88A1.814,1.814,0,0,0,329.777,313.8Z"></path>
  <path id="SvgjsPath1001" data-name="F Outline" class="cls-2" d="M92.013,93.319c0.768,0.768,1.536,1.92,3.84,4.224,0.768,1.152,1.536,1.92,2.3-1.152a21.1,21.1,0,0,0-2.688-3.456,26.9,26.9,0,0,1-3.072-3.84,40.676,40.676,0,0,1-3.84-4.608l-1.92,1.92a33.568,33.568,0,0,0,3.072,3.84C90.477,91.4,91.245,92.167,92.013,93.319ZM76.653,112.9c0.768,0.384,1.536,1.152,4.608,5.376a16.256,16.256,0,0,1,1.92,2.688c1.536,0,2.688.384,3.456-.384-1.92-2.3-3.84-4.992-6.144-7.3a38.779,38.779,0,0,1-3.84-4.992C76.653,109.831,76.269,110.983,76.653,112.9ZM97.005,89.095c0.768,1.92,2.3,3.072,3.456,4.224a16.7,16.7,0,0,0,2.3,2.688c0.384-.768,1.152-1.152-0.768-4.992-1.152-1.536-2.688-3.072-4.608-5.376-0.768-1.152-1.536-1.92-2.3-3.072-0.768-.768-1.152-1.536-3.84-0.768A78.7,78.7,0,0,0,97.005,89.095Zm-9.984,3.456c-0.768-.768-1.152-1.92-2.3-3.84A11.669,11.669,0,0,0,82.8,91.4a15.035,15.035,0,0,0,3.072,3.84Zm-3.072,19.2c1.152,0.768,1.536,1.92,2.3,3.072a27.863,27.863,0,0,1,3.456,4.224c0.384-1.152.384-1.92,0.768-3.072a8.362,8.362,0,0,1-2.688-3.456c-0.384-.768-1.152-1.536-3.072-4.608-1.536-1.152-2.3-2.688-4.608-5.376-0.384-.768-1.152-1.536-1.536-2.3l-1.152,3.456a34.621,34.621,0,0,0,3.456,3.84,33.215,33.215,0,0,1,2.688,3.84ZM82.8,99.079c1.152,1.536,1.92,3.072,3.072,4.608,0.768,0.384,1.152,1.536,4.224,5.376,0.384,1.152,1.152,1.536,1.92,2.3,0.384-.768.768-1.92,0-4.608-1.152-1.536-3.072-3.072-4.224-4.608-0.768-.768-1.152-1.92-1.92-2.688-0.384-.768-1.152-1.92-5.76-3.456C81.261,97.159,82.029,98.311,82.8,99.079Zm19.584-13.824a57.845,57.845,0,0,0,5.376,6.528,8.033,8.033,0,0,0,2.3-1.536,9.052,9.052,0,0,0-1.92-1.92c-1.152-1.92-2.688-3.456-3.84-5.376l-2.688-2.688a21.1,21.1,0,0,1-2.688-3.456c-1.152.384-1.92,0.768-1.536,2.688,1.152,1.536,2.688,3.072,3.84,4.608ZM85.869,334.472c-0.384-.768-1.152-1.92-6.144-8.064-0.768-1.152-1.152-1.92.384,4.992a17.74,17.74,0,0,1,2.688,2.688c1.152,1.152,1.92,2.688,4.992,3.072C87.021,336.392,86.637,335.24,85.869,334.472Zm24.576-131.329c0.384-.768.768-1.92-0.384-4.608-0.768-1.152-1.536-1.92-2.3-3.072l-0.768,3.456a25.059,25.059,0,0,0,3.456,3.84v0.384ZM103.917,77.959c0.384,0.768,1.152,1.536,3.072,3.456a25.059,25.059,0,0,0,3.456,3.84,11.956,11.956,0,0,0,2.688,3.456c0.768-.384,1.536-0.768,0-4.608l-3.072-3.072c-0.768-1.152-1.92-2.3-2.688-3.456a35.446,35.446,0,0,1-3.072-3.456C103.533,74.5,102.381,74.887,103.917,77.959Zm-3.072,129.409c-0.768-1.152-1.92-2.3-3.456-4.224-0.768-1.152-1.536-1.92-2.3-3.072-1.152-1.152-1.92-2.3-3.84-4.608l-2.688-.384Zm11.136-65.28c-1.152-1.92-3.072-3.456-4.608-5.76-0.768-.384-1.152-1.536-1.92-2.3-0.384,1.152-.384,1.92-0.768,3.456a49.977,49.977,0,0,1,6.912,8.832,10.181,10.181,0,0,0,1.92,2.3,21.3,21.3,0,0,1,2.3,3.072A6.189,6.189,0,0,0,117.357,149Zm-4.992,66.432,1.152-2.688c-1.152-1.92-2.688-3.456-3.84-5.376l-2.688-2.688c-0.768-.768-1.152-1.536-1.92-2.3L97.389,197c1.152,1.536,2.688,3.072,4.992,5.76a26.9,26.9,0,0,0,3.072,3.84Zm-21.5-55.68c1.152,0,2.3.384-.768-5.76-1.536-1.152-2.3-2.688-4.608-5.76a19.274,19.274,0,0,1-4.608-.768,41.1,41.1,0,0,0,5.376,6.144,33.215,33.215,0,0,1,2.688,3.84Zm-31.1,182.4c-0.768-.768-1.536-1.92-3.456-3.84a44.024,44.024,0,0,0-3.84-4.992,13.8,13.8,0,0,1-4.224-.768c1.536,1.92,3.072,3.84,5.76,6.912a66.856,66.856,0,0,1,4.608,5.376c1.152,0.384,2.688.768,4.224,1.152A30.016,30.016,0,0,0,54.381,335.24Zm-12.288-2.688c1.536,1.152,3.456,2.3,4.608,2.3a16.509,16.509,0,0,0-3.456-3.84Zm38.016,4.992a10.181,10.181,0,0,0-1.92-2.3c-0.768-1.152-1.152-3.072-2.3-4.224-1.536-1.536-2.688-3.072-4.992-5.376a1.792,1.792,0,0,0-1.92,1.92c1.536,1.92,3.072,3.84,5.76,7.68a16.744,16.744,0,0,0,3.456,4.224A1.792,1.792,0,0,0,80.109,337.544Zm-8.832-.768c-1.92-3.072-4.224-5.76-7.3-9.984a2.99,2.99,0,0,0-2.688,1.152,50.174,50.174,0,0,1,4.992,6.144A6.862,6.862,0,0,0,71.277,336.776Zm-15.744-9.6c-1.152,0-2.3,0-2.3,1.536,1.152,1.536,2.688,2.688,4.224,4.608,1.92,1.92,4.224,4.224,5.376,6.528h3.456c-1.536-2.688-4.224-4.992-6.144-7.68-1.536-1.152-2.3-3.072-4.224-4.608Zm-15.744.384a21.435,21.435,0,0,1-1.92-3.072c-1.92-.768-3.84-1.536-5.376-2.3a11.669,11.669,0,0,1,1.92,2.688C35.565,326.792,37.1,328.712,39.789,327.56Zm30.336-184.7a43.684,43.684,0,0,1,4.224,5.376c1.536,0.768,3.072,1.536,3.072,0a5.972,5.972,0,0,1-2.3-3.072,50.157,50.157,0,0,1-4.992-6.144,16.9,16.9,0,0,0-3.84-.768,21.1,21.1,0,0,1,2.688,3.456ZM46.7,291.08h3.456a59.84,59.84,0,0,1-6.144-7.68,26.458,26.458,0,0,1-1.152,3.072C44.013,288.008,45.549,289.544,46.7,291.08Zm8.064-4.224c-1.152-1.536-2.688-3.072-4.608-5.376-0.768-1.152-1.536-1.92-4.224-1.152,1.152,1.152,1.92,2.688,3.84,4.608,0.768,1.92,2.3,3.072,3.84,5.376C54.765,289.928,55.533,289.544,54.765,286.856ZM88.557,142.471c-1.152-.384-1.92-0.384-2.688.384a21.951,21.951,0,0,1,2.688,3.072,8.034,8.034,0,0,0,1.536,2.3c0.384,1.152,1.152,1.92,4.608,6.144a14.405,14.405,0,0,0,3.84.384,8.033,8.033,0,0,0-1.536-2.3c-0.384-.768-1.152-1.536-1.536-2.3-1.536-1.152-2.3-2.688-3.456-4.224A29.319,29.319,0,0,0,88.557,142.471ZM204.91,124.423a11.957,11.957,0,0,0,2.688,3.456,26.9,26.9,0,0,1,3.072,3.84,66.75,66.75,0,0,0,4.992,5.76c0.384-1.152.768-1.92,1.152-3.072-1.152-1.152-2.3-2.688-3.456-3.84-1.536-1.92-3.072-3.84-5.76-7.3a19.232,19.232,0,0,1-2.688-3.072C204.526,121.351,203.758,122.119,204.91,124.423Zm-3.456,15.744c1.92,1.92,3.072,3.84,8.448,11.136,0.384-1.152.768-1.92-3.456-9.216-1.152-1.92-3.072-3.456-4.608-5.76-0.768-.768-1.536-1.92-2.688-3.072a5.181,5.181,0,0,0,0,4.224C199.918,138.247,200.686,139.4,201.454,140.167ZM216.43,127.5a13.815,13.815,0,0,1,1.92,3.456A36.248,36.248,0,0,0,219.5,127.5C218.734,126.727,217.966,125.959,216.43,127.5Zm-9.984,8.448c0.384,0.768,1.152,1.536,1.536,2.3a6.862,6.862,0,0,0,4.992,2.688,114.984,114.984,0,0,0-6.912-9.216,43.464,43.464,0,0,0-3.84-4.992,18.721,18.721,0,0,0-1.152,2.688,26.44,26.44,0,0,0,4.224,4.992Zm-6.528,12.672c0.768,0.768,1.536,1.536,5.376,6.912,0.768,0.768,1.152,1.536,1.92,2.3,0.384-1.152.768-1.92-.384-4.608-0.768-.768-1.536-1.92-7.68-9.984a29.24,29.24,0,0,0-2.688-3.456,9.171,9.171,0,0,0-.768,3.456A29,29,0,0,1,199.918,148.615Zm-4.608,3.84c0.768,0.768,1.152,1.92,3.072,3.84,0.384,0.768,1.152,1.536,3.072,3.456a25.059,25.059,0,0,0,3.456,3.84c0.384-.768.768-1.92,1.152-2.688-1.536-1.536-2.688-3.456-4.224-4.992a65.648,65.648,0,0,1-4.224-5.376,21.494,21.494,0,0,1-3.456-4.608C193.774,147.079,193.006,147.847,195.31,152.455ZM350.831,81.8a5.51,5.51,0,0,0,4.992,2.688,56.443,56.443,0,0,0-3.84-4.992c-0.768-1.152-1.536-2.3-4.224-1.536C348.911,79.495,350.063,80.647,350.831,81.8Zm-155.137,80.64c1.536,1.536,2.688,3.456,6.528,7.68a5.134,5.134,0,0,0,.384-3.456c-1.152-1.92-2.688-3.456-3.84-5.376l-2.688-2.688c-1.536-1.92-3.072-3.84-4.608-6.144a4.638,4.638,0,0,0-.384,4.224C192.238,158.983,194.158,160.519,195.694,162.439Zm33.024-69.888c-0.384-.768-1.152-1.536-1.536-2.3-1.536-.768-3.072-1.152-3.84-0.384a29,29,0,0,0,4.224,5.376Zm-14.592,31.1a56.443,56.443,0,0,0-3.84-4.992,29.308,29.308,0,0,0-3.072-4.224c-0.384.768-.768,1.92-1.152,2.688a33.578,33.578,0,0,0,3.072,3.84,34.621,34.621,0,0,0,3.456,3.84ZM148.077,74.119c0.768,0.768,1.152,1.92,3.072,3.84,0.384,0.384,1.152,1.152,5.376,1.92-0.768-.768-1.152-1.536-1.92-2.3a65.648,65.648,0,0,1-4.224-5.376,10.181,10.181,0,0,1-1.92-2.3,16.256,16.256,0,0,0-1.92-2.688,7.486,7.486,0,0,0-3.072.384,13.471,13.471,0,0,1,1.92,3.072ZM121.2,79.111c1.152,1.536,1.92,3.456,3.072,4.992,1.152-.384,2.3-0.768,1.92-2.3a40.223,40.223,0,0,0-3.072-4.224c-0.768-1.152-2.3-1.536-3.072-2.688a22.027,22.027,0,0,0-1.536-2.688,10.181,10.181,0,0,0-1.92-2.3c-0.768.384-1.92,0.384-2.688,0.768,0.768,1.152,1.92,2.688,2.688,3.84A52.134,52.134,0,0,0,121.2,79.111Zm-10.368-1.92c1.152,1.536,2.688,3.072,3.84,4.608a5.51,5.51,0,0,0,4.992,2.688,56.443,56.443,0,0,0-3.84-4.992l-3.456-4.608a21.3,21.3,0,0,1-2.3-3.072,6.488,6.488,0,0,0-2.3,1.152C108.525,74.119,109.677,75.655,110.829,77.191Zm13.056-3.456c1.536,1.152,2.3,2.688,4.608,5.376,0.768,0.768,1.152,1.536,2.688,3.072a7.119,7.119,0,0,0,2.688-.768c-1.92-2.3-3.84-4.992-6.144-7.3a6.862,6.862,0,0,0-4.992-2.688Zm3.072,209.282a11.669,11.669,0,0,1,1.92,2.688c1.152,1.92,2.688,3.84,5.376,2.688a21.435,21.435,0,0,1-1.92-3.072c-0.768-1.152-1.536-2.3-2.688-3.84a9.052,9.052,0,0,0-1.92-1.92c-0.384.768-1.152,1.536-1.536,2.3ZM100.845,152.455c0.768,0.768,1.152,1.92,2.3,2.688,1.152,0,2.3,0,2.3-1.92a45.235,45.235,0,0,1-4.224-4.992,40.809,40.809,0,0,0-3.456-4.224l-4.224-1.536c0.768,1.152,1.92,2.3,2.688,3.456A13.471,13.471,0,0,1,98.157,149ZM93.933,99.847c-1.152-1.536-1.92-2.688-4.992-2.688,1.152,1.92,2.688,3.456,3.84,5.376,0.768,0.768,1.536,1.92,2.3,2.688a8.033,8.033,0,0,1,1.536-2.3C95.469,101.767,94.7,100.615,93.933,99.847Zm96,71.424c-1.152-1.152-2.3-2.688-4.224-4.992a18.721,18.721,0,0,0-1.152,2.688,10.181,10.181,0,0,0,1.92,2.3h3.456Zm-16.9-99.456c-1.152-.384-2.688-0.768-2.3,1.152Zm-35.713-1.92c0.384,1.152,1.152,1.92,4.992,6.528a33.215,33.215,0,0,0,2.688,3.84h3.84a36.67,36.67,0,0,1-4.608-6.144c-0.384-.768-1.152-1.536-5.376-6.912-1.152,0-2.3,0-2.3,1.536Zm54.145,97.537a15.035,15.035,0,0,0,3.072,3.84l0.768-3.072c-0.384-.768-1.152-1.536-3.456-4.224-0.384-1.152-1.152-1.536-3.456-4.224a18.721,18.721,0,0,0-1.152,2.688C188.4,163.975,189.55,165.127,191.47,167.431ZM163.821,74.5c1.152,1.536,3.072,3.072,4.993,5.76a6.189,6.189,0,0,0,1.536-2.688c-0.768-1.152-2.3-1.536-3.073-2.688a22.027,22.027,0,0,0-1.536-2.688,8.574,8.574,0,0,0-2.688-2.688c-1.152-.384-2.3-0.768-2.3.768Zm-58.368,74.113a16.7,16.7,0,0,1,2.3,2.688c0.768,1.152,1.92,2.688,4.608,1.92-0.768-.768-1.536-1.92-7.68-9.984a30.62,30.62,0,0,0-2.3-3.072c-0.768.384-1.536,1.152-1.152,3.072A29,29,0,0,1,105.453,148.615Zm49.536-75.649c0.768,1.152,1.92,2.688,3.072,4.224a21.3,21.3,0,0,1,2.3,3.072c1.152,0,2.3,0,2.688-.768L159.6,74.887c-0.768-.768-1.536-1.92-4.992-6.912a13.063,13.063,0,0,0-3.84-.384,6.888,6.888,0,0,1,1.92,2.688A16.7,16.7,0,0,1,154.989,72.967Zm-23.808-.384c1.152,0.768,1.536,1.92,2.3,3.072a55.921,55.921,0,0,1,4.608,5.376c0.768,0,1.536,0,.384-3.072-0.768-1.152-1.92-1.92-3.456-4.608-0.384-.768-1.152-1.536-4.224-5.76a5.55,5.55,0,0,0-2.688.768A33.208,33.208,0,0,1,130.8,72.2Zm95.233,35.329c-1.536-1.152-2.3-2.688-4.608-5.376a10.181,10.181,0,0,0-1.92-2.3c-0.768-1.152-1.152-3.072-3.456-5.376-0.384.768-1.152,1.536,0,5.376a36.476,36.476,0,0,0,6.144,7.3c0.768,1.152,1.92,2.3,3.84,4.992,0.384-.768.768-1.536,0.384-3.84Zm19.968-3.84a30.016,30.016,0,0,0-3.072-3.84c-0.768-.768-1.536-1.92-3.456-3.84a21.3,21.3,0,0,0-2.3-3.072c-1.536-.384-3.456-1.152-3.84,0,0.768,0.768,1.536,1.92,3.84,4.224,1.92,1.92,3.456,4.224,5.376,6.144C244.462,104.071,246,104.839,246.382,104.071Zm-16.9-1.92c-0.768-.768-1.152-1.92-1.92-2.688-0.384-.768-1.152-1.92-6.144-8.064-0.768-1.152-1.152-1.92-1.92-3.072-0.384,1.152-.768,1.92,1.536,6.912,1.152,1.152,2.3,2.688,3.456,3.84C225.646,100.615,226.414,102.151,229.486,102.151Zm1.152-4.992,2.3,3.456a21.649,21.649,0,0,1,4.608,1.536c-0.768-.768-1.152-1.536-1.92-2.3a16.506,16.506,0,0,0-3.456-3.84Zm43.008,10.752c-1.536-1.152-2.3-2.688-4.608-5.376a10.181,10.181,0,0,0-1.92-2.3,5.289,5.289,0,0,0-3.456,0,36.476,36.476,0,0,0,6.144,7.3c0.768,1.152,1.92,2.3,3.072,4.224,1.152,0.384,2.3.384,1.92-1.536Zm-18.432-2.688c-1.536-3.072-4.224-5.376-6.912-8.832-1.92-.384-3.456-1.152-4.992-1.536a99.841,99.841,0,0,1,9.984,12.288c1.152,0,2.688.384,2.3-1.92h-0.384Zm11.136,3.84a5.972,5.972,0,0,1-2.3-3.072c-0.768-.768-1.536-1.536-6.144-7.68-1.152,0-2.3-.384-2.688.768,1.152,1.152,1.92,2.3,3.84,4.608a40.151,40.151,0,0,1,4.608,6.144C264.814,109.831,265.966,110.215,266.35,109.063Zm-67.584,91.392-2.688-2.688a7.019,7.019,0,0,0-3.072-2.3l-1.92.384c1.152,2.3,3.072,3.84,4.608,5.76,1.536,1.536,2.688,3.456,5.76,6.912h3.456a16.7,16.7,0,0,0-2.3-2.688C201.454,203.911,199.918,202.375,198.766,200.455Zm8.832,1.152c-2.3-1.92-3.84-4.224-7.3-8.448-0.768.384-1.92,1.152-1.92,2.3,0.384,0.768,1.152,1.536,3.072,3.456a25.059,25.059,0,0,0,3.456,3.84c0.768,1.536,1.536,2.3,3.84,4.992a5.107,5.107,0,0,0,3.072-1.152C210.67,205.447,209.9,204.3,207.6,201.607Zm76.8-90.624c-1.536-1.152-2.3-2.688-3.456-4.224s-3.072-3.072-4.992-5.376c-0.768,0-1.92-.384-2.688-0.384a9.625,9.625,0,0,0,1.536,2.688c0.768,0.384,1.152,1.536,4.224,5.376,0.384,1.152,1.152,1.92,3.456,4.224a5.294,5.294,0,0,0,3.456,0C285.55,112.519,284.782,111.751,284.4,110.983ZM214.51,192.391a22.027,22.027,0,0,0-1.536-2.688c-0.384-.768-1.152-1.536-4.608-5.76-0.384,1.152-.768,1.92,2.688,8.064a52.134,52.134,0,0,0,4.608,4.608c1.152,1.536,1.92,3.072,3.072,4.608,0.384-.768,1.152-1.536,1.536-2.3-1.152-1.152-1.536-2.688-2.688-3.84C216.814,193.927,215.278,193.543,214.51,192.391Zm3.072-75.648c-0.384-.768-1.536-1.536-3.072-2.688a22.027,22.027,0,0,0-1.536-2.688c-0.384-.768-1.152-1.536-3.072-3.072-0.384.768-.768,1.536,1.152,5.376a52.134,52.134,0,0,0,4.608,4.608,86.036,86.036,0,0,0,4.992,7.3c0.768-1.152,1.152-1.92,0-4.608A40.223,40.223,0,0,0,217.582,116.743Zm1.536-7.68a5.972,5.972,0,0,1-2.3-3.072c-0.768-.768-1.536-1.536-4.992-2.3a13.244,13.244,0,0,1,3.456,4.608c0.384,0.768,1.152,1.536,4.224,5.376a44.022,44.022,0,0,0,4.224,5.376c0.384-.768.768-1.92,1.152-2.688-0.768-1.152-1.92-1.92-2.688-3.072a21.1,21.1,0,0,1-2.688-3.456ZM210.286,197c-0.384-.768-1.152-1.536-1.536-2.3-1.152-1.152-3.456-3.84-3.84-5.376-0.768.768-1.536,1.536,0.384,5.376a33.7,33.7,0,0,1,4.608,5.76,4.019,4.019,0,0,0,4.224,1.536,11.669,11.669,0,0,0-1.92-2.688ZM347.759,92.551a20.372,20.372,0,0,0-3.456-4.224,15.035,15.035,0,0,0-3.072-3.84,9.054,9.054,0,0,1-1.92,1.92,22.264,22.264,0,0,0,3.456,3.84c1.152,1.92,2.688,3.456,5.376,6.528,0.384,0.768,1.152,1.536,4.608,1.92C351.215,96.775,349.679,94.855,347.759,92.551Zm-9.6-1.536a10.181,10.181,0,0,1-1.92-2.3c-0.768.384-1.536,1.152-2.3,1.536a10.351,10.351,0,0,0,2.688,3.072c1.152,1.92,2.688,3.072,4.224,4.992,0.768,0.768,1.536,1.92,2.3,2.688s1.536,1.92,4.608,1.152a57.456,57.456,0,0,1-4.224-4.992c-1.536-1.152-2.3-3.072-4.224-4.608ZM349.3,84.1a34.621,34.621,0,0,1-3.456-3.84l-1.92,1.92a14.525,14.525,0,0,0,2.688,3.072,11.956,11.956,0,0,0,2.688,3.456,26.9,26.9,0,0,1,3.072,3.84c1.152,1.152,1.92,2.3,3.072,3.456a4.627,4.627,0,0,0,1.92-1.92c-0.768-.768-1.536-1.92-2.3-2.688l-4.608-5.76Zm-8.448,19.968a30.016,30.016,0,0,0-3.072-3.84c-0.768-.768-1.536-1.92-3.456-3.84a23.769,23.769,0,0,0-3.456-4.224,8.033,8.033,0,0,0-2.3,1.536,47.982,47.982,0,0,1,3.456,3.84c1.92,1.92,3.456,4.224,5.376,6.528,0.768,1.152,1.92,1.92,2.688,3.072C340.847,106.759,341.615,106.375,340.847,104.071Zm17.28-15.744a21.435,21.435,0,0,1,1.92,3.072,9.052,9.052,0,0,0,1.92-1.92,24.844,24.844,0,0,0-3.072-3.456ZM368.5,79.111c-1.536-1.536-3.072-3.456-4.608-4.992-1.152-1.152-1.92-2.3-9.6-10.368,0.768,1.152,1.152,2.3,2.688,5.376,0.384,0.768,1.152,1.536,3.072,4.608,1.536,1.152,2.3,2.688,4.608,5.376a9.507,9.507,0,0,0,3.456,2.688A5.694,5.694,0,0,0,368.5,79.111Zm-9.216-1.536c-0.768-1.152-2.3-1.536-3.072-2.688a30.425,30.425,0,0,0-2.3-3.84,5.977,5.977,0,0,0-1.152,3.456,52.134,52.134,0,0,0,4.608,4.608c1.152,1.536,1.92,3.456,3.456,5.376a25.074,25.074,0,0,1,2.688,3.072,10.179,10.179,0,0,0,1.92-2.3,24.844,24.844,0,0,0-3.072-3.456A40.223,40.223,0,0,0,359.279,77.575Zm-69.121,31.489a40.809,40.809,0,0,0-3.456-4.224,6.888,6.888,0,0,0-1.92-2.688,7.486,7.486,0,0,0-3.072.384,40.809,40.809,0,0,0,3.456,4.224c0.768,1.152,1.536,1.92,5.376,7.68a15.752,15.752,0,0,1,4.224.384,21.1,21.1,0,0,1-2.688-3.456A10.181,10.181,0,0,1,290.158,109.063Zm23.425,0a43.4,43.4,0,0,0-6.529-4.608,13.792,13.792,0,0,1,2.688,3.84c0.384,0.768,1.153,1.536,3.073,4.608a4.627,4.627,0,0,1,1.92,1.92c1.152,0,1.92,0,1.92-1.536a21.1,21.1,0,0,1-2.688-3.456Zm-4.609,4.992a22.027,22.027,0,0,0-1.536-2.688c-0.384-.768-1.152-1.536-4.992-6.144a13.471,13.471,0,0,0-1.92-3.072,9.543,9.543,0,0,1-3.072.384,23.9,23.9,0,0,1,3.072,4.608C302.062,109.831,306.286,112.9,308.974,114.055Zm-16.512-11.52c-1.152,0-2.3,0-2.3,1.536a29,29,0,0,1,4.224,5.376,55.921,55.921,0,0,1,4.608,5.376,1.54,1.54,0,0,0,2.3-.768,8.361,8.361,0,0,1-1.92-3.072Zm28.417,5.376c-1.536-1.152-2.3-2.688-4.608-5.376-0.384-.768-1.152-1.536-1.92-2.688-1.152.384-2.3,0.384-3.456,0.768,1.92,2.3,3.84,4.608,6.144,6.912,0.768,1.152,1.92,2.3,6.912,4.992a10.181,10.181,0,0,0-1.92-2.3Zm3.072-5.76c-0.768-.768-1.152-1.92-4.992-3.072,1.152,1.536,1.92,3.072,3.072,4.608,0.768,0.384,1.152,1.536,4.224,5.376a8.052,8.052,0,0,0,2.3,3.072c1.152-.384,1.92-0.768,3.072-1.152C329.711,109.447,325.487,104.071,323.951,102.151Zm6.144-2.3c-1.152-1.536-1.92-2.688-4.992-2.688,1.152,1.92,2.688,3.456,3.84,5.376a40.809,40.809,0,0,0,3.456,4.224,13.471,13.471,0,0,1,1.92,3.072,18.721,18.721,0,0,0,2.688-1.152,15.035,15.035,0,0,0-3.072-3.84A24.666,24.666,0,0,0,330.1,99.847ZM139.629,284.936c-2.688-3.456-5.76-6.912-8.064-10.752a3.78,3.78,0,0,0-1.152,3.072c1.152,1.152,1.536,3.072,2.3,4.224a46.023,46.023,0,0,1,4.224,4.608c1.536,1.92,2.688,3.456,4.224,5.376,0.384-.768,1.152-1.92,0-4.608ZM133.1,295.3c-0.384-.768-1.152-1.92-4.224-5.376a11.669,11.669,0,0,1-1.92-2.688c-0.768-1.536-1.536-2.3-.384,3.84,1.152,1.152,2.3,2.688,3.456,3.84,1.152,1.536,1.92,3.072,4.992,3.072C134.253,297.224,133.869,296.072,133.1,295.3Zm-5.76,3.072a10.181,10.181,0,0,0-1.92-2.3c-0.768-1.152-1.152-3.072-2.3-4.224a21.951,21.951,0,0,1-2.688-3.072c-0.384,1.152-1.152,1.536-1.92,2.3a83.74,83.74,0,0,0,11.52,14.592c0.384-.768,1.152-1.152.768-2.688l-2.3-3.456Zm-2.688,6.528a5.972,5.972,0,0,1-2.3-3.072c-0.768-.768-1.536-1.536-3.84-4.224-0.768-1.152-1.536-2.3-3.84-1.536a29.24,29.24,0,0,0,2.688,3.456c1.152,1.152,2.3,2.688,9.984,9.216C126.573,307.592,125.805,306.824,124.653,304.9Zm19.968-23.424c-0.384-1.152-1.152-1.536-6.144-7.68-0.768-1.152-1.92-1.92-4.992-2.3,0.768,0.768,1.536,1.536,3.84,4.224,1.92,3.072,3.84,5.76,7.3,10.368,0.768-.768,1.152-1.536.384-3.84ZM120.045,309.9a22.027,22.027,0,0,0-1.536-2.688c-0.384-.768-1.152-1.536-6.528-8.448-0.384.768-1.152,1.152-.384,4.224a10.181,10.181,0,0,0,1.92,2.3,40.223,40.223,0,0,1,3.072,4.224c1.152,1.536,3.072,3.072,4.992,5.376a4.9,4.9,0,0,0,1.536-2.3C122.349,311.432,120.813,311.048,120.045,309.9ZM136.173,293c0.384,1.152,1.152,1.92,1.536-1.152ZM87.021,327.56a21.435,21.435,0,0,1-1.92-3.072c-0.384-1.152-1.536-1.92-2.3-3.456a9.625,9.625,0,0,1-2.688,1.536c0.384,0.768,1.152,1.536,1.536,2.3C82.8,326.792,84.333,328.712,87.021,327.56ZM102,326.024c-1.152-1.536-2.688-3.072-4.608-5.376-0.768-1.152-1.536-1.92-2.3-3.072-0.768-.768-1.536-1.536-3.84-0.768,1.536,2.3,3.456,4.224,5.76,7.3,0.768,1.92,2.3,3.072,4.992,6.528,0.768-.768,1.92-1.152,1.152-3.072Zm13.824-11.52c-0.384-.768-1.152-1.536-1.536-2.3-0.768-.768-1.152-1.536-1.92-2.3s-1.536-1.92-4.608-6.528a10.181,10.181,0,0,0-2.3,1.92c0.768,0.768,1.536,1.536,5.376,6.912,0.768,0.768,1.152,1.536,1.92,2.3s1.536,1.536,4.992,2.3A10.181,10.181,0,0,0,115.821,314.5Zm-20.352,13.44A26.9,26.9,0,0,1,92.4,324.1c-1.536-1.92-3.072-3.84-6.912-3.456a46.037,46.037,0,0,1,4.224,4.608c0.768,1.152,1.536,1.92,2.3,3.072,0.768,0.768,1.536,1.92,4.608,5.376a2.593,2.593,0,0,0,1.536-2.3A21.1,21.1,0,0,0,95.469,327.944Zm-6.528,4.224a13.794,13.794,0,0,0,2.688,3.84l2.3-1.152a16.506,16.506,0,0,0-3.456-3.84Zm55.3-62.208c-0.384-.768-1.152-1.536-5.376-7.3a11.5,11.5,0,0,0-1.536,3.072c0.384,1.152,1.152,1.92,4.992,6.528,1.536,3.072,4.224,4.992,6.144,8.064,0.768-.768,1.152-1.92.384-4.224C147.309,274.184,145.773,272.264,144.237,269.96Zm-39.936,48-2.688-2.688a26.9,26.9,0,0,1-3.072-3.84c-0.768.384-1.536,1.152-1.152,3.072,1.152,1.536,2.688,3.072,4.992,5.76,0.768,1.536,1.92,2.688,5.376,6.528,0.768-.384,1.536-1.152.384-3.456C106.989,321.416,105.453,319.88,104.3,317.96Zm8.832,1.152-3.072-3.072c-0.768-1.152-1.92-2.3-2.688-3.456a6.888,6.888,0,0,1-1.92-2.688l-2.3-2.3c-0.768.384-1.536,1.152-2.3,1.536a18.51,18.51,0,0,0,3.072,3.84c0.384,0.768,1.152,1.536,3.072,3.456a25.059,25.059,0,0,0,3.456,3.84,16.256,16.256,0,0,0,1.92,2.688C113.133,322.568,113.9,321.8,113.133,319.112Zm68.353-109.057a21.435,21.435,0,0,1-1.92-3.072c-0.768-1.152-1.536-2.3-2.688-3.84a57.47,57.47,0,0,1-4.608-5.76c-0.384,1.152-1.152,1.92-.384,4.608a16.7,16.7,0,0,1,2.3,2.688,11.669,11.669,0,0,1,1.92,2.688C177.262,209.287,178.8,211.207,181.486,210.055Zm-5.376,1.536a11.669,11.669,0,0,1-1.92-2.688c-1.152-2.3-2.688-3.84-4.992-3.072,0.768,0.768,1.152,1.92,4.608,6.912,1.152,1.152,2.3,2.688,3.456,3.84,1.152,1.536,1.92,3.072,3.072.384a11.669,11.669,0,0,0-1.92-2.688Zm-1.536,8.448a10.181,10.181,0,0,0-1.92-2.3c-0.768-1.152-1.152-3.072-2.3-4.224a40.941,40.941,0,0,1-3.457-4.224,11.5,11.5,0,0,0-1.536,3.072,88.742,88.742,0,0,0,11.905,14.977,7.119,7.119,0,0,0,.768-2.688l-2.3-3.457Zm-2.688,6.529a5.972,5.972,0,0,1-2.3-3.072c-0.768-.768-1.536-1.536-3.841-4.225-0.768-1.152-1.536-2.3-1.152,1.92a24.017,24.017,0,0,1,3.457,4.609c0.384,0.768,1.152,1.536,3.072,4.608,1.152,0.768,1.92,2.3,3.072,3.456a7.234,7.234,0,0,0,.768-3.072,21.1,21.1,0,0,1-2.688-3.456Zm19.968-23.425c-0.384-1.152-1.152-1.536-6.144-7.68l-1.152,1.92a118.738,118.738,0,0,0,8.064,11.136l2.688-1.152a10.181,10.181,0,0,0-1.92-2.3Zm-43.393,62.593a40.809,40.809,0,0,0-3.456-4.224,29.308,29.308,0,0,0-3.072-4.224,9.625,9.625,0,0,1-1.536,2.688c1.152,1.152,1.92,2.3,3.072,3.456,0.768,1.152,1.536,1.92,4.608,6.528,0.768,0.768,1.152,1.92,3.84,4.992a22.027,22.027,0,0,0,1.536-2.688c-1.152-1.536-1.92-2.688-3.072-4.224A10.181,10.181,0,0,1,148.461,265.736Zm18.816-34.176a22.027,22.027,0,0,0-1.536-2.688c-0.384-.768-1.152-1.536-4.992-6.528-0.768.768-1.152,1.92,3.072,8.832a52.015,52.015,0,0,0,4.609,4.608c0.768,1.152,1.536,2.688,2.688,4.224a18.721,18.721,0,0,1,1.152-2.688,8.361,8.361,0,0,0-1.92-3.072C169.582,233.1,168.046,232.712,167.277,231.56ZM181.1,198.919a21.1,21.1,0,0,0-2.688-3.456l-2.688,1.152c0.768,0.768,1.152,1.536,1.92,2.3,1.152,1.152,1.536,3.072,2.3,4.224,1.536,1.536,3.072,3.072,5.76,5.376l1.152-1.92a33.16,33.16,0,0,0-4.992-5.376Zm-23.041,49.153A21.951,21.951,0,0,0,155.373,245a24.653,24.653,0,0,0-3.84-4.992A11.5,11.5,0,0,1,150,243.08a33.768,33.768,0,0,0,3.84,3.84,50.157,50.157,0,0,0,4.608,5.76c0.768,1.152,1.536,1.92,4.992,2.3-1.536-1.92-2.688-3.456-4.224-5.376Zm-3.456,5.76c-0.768-.384-1.152-1.536-1.92-2.3s-1.536-1.536-4.608-4.992a4.816,4.816,0,0,0-.384,3.456,6.888,6.888,0,0,0,1.92,2.688l2.3,2.3c0.768,0.768,1.536,1.92,2.3,2.688,1.92,1.536,3.072,3.84,4.608,5.76,0.384-.768.768-1.92,1.152-2.688C158.829,258.824,156.909,256.9,154.6,253.832Zm0.384,10.368c-0.768-.768-1.152-1.536-3.072-3.456a30.016,30.016,0,0,0-3.072-3.84c-0.768-.768-1.536-1.92-3.84-4.608a16.7,16.7,0,0,0-1.536,2.688c1.92,1.536,3.456,3.84,4.992,5.76a29,29,0,0,1,4.224,5.376,25.071,25.071,0,0,1,2.688,3.072,22.027,22.027,0,0,1,1.536-2.688Zm13.825-19.584-0.384-1.536Zm-8.449-3.84c-2.3-1.92-3.84-4.224-5.76-6.528a5.963,5.963,0,0,0-.384,3.84,25.059,25.059,0,0,0,3.456,3.84,11.957,11.957,0,0,0,2.688,3.456c1.152,1.152,2.3,2.688,4.992,5.76a5.948,5.948,0,0,0,.768-3.072l-4.608-5.76Zm2.688-4.608c-0.384-.768-1.152-1.536-1.536-2.3-1.152-1.152-3.456-3.84-3.84-5.376-0.768,1.152-1.152,1.92.384,5.376a33.7,33.7,0,0,1,4.608,5.76,4.019,4.019,0,0,0,4.224,1.536,11.669,11.669,0,0,0-1.92-2.688Z"></path>
  <path id="SvgjsPath1000" class="cls-3" d="M336.258,52.614c-6.528,4.224-15.36,10.752-31.1,10.752a329.2,329.2,0,0,1-67.969-7.3c4.224-4.608,6.144-16.512-3.456-16.512a60.451,60.451,0,0,0-32.256,9.216c-21.888-4.992-43.392-9.216-66.433-9.216-79.488,0-96.384,41.088-96.384,61.441,0,20.736,15.744,34.56,50.688,34.56,9.216,0,12.672-13.44,6.912-13.44,0,0-26.5,1.536-26.5-16.9s15.36-44.929,66.432-44.929c14.208,0,28.033,3.456,42.625,8.064-22.273,25.728-39.553,64.513-54.913,102.913H96.64c-6.912,0-16.128,8.832-16.128,14.592,0,1.152.384,2.688,3.456,2.688h33.024C95.1,243.08,75.52,291.464,46.72,291.464c-13.056,0-13.824-10.752-5.76-19.968,4.224-4.608-6.528-17.28-11.136-14.592-10.368,6.144-19.968,17.28-19.968,28.416,0,0-3.456,34.944,41.088,34.944,49.152,0,86.4-66.048,115.585-131.713H186.5c8.064,0,16.128-9.6,16.128-14.208,0-1.92-.768-3.072-2.688-3.072H173.825c15.36-35.328,28.416-69.5,39.552-90.624,22.656,7.68,47.232,14.976,76.032,14.976,35.713,0,56.833-29.568,59.137-33.408C351.234,58.374,342.786,48.774,336.258,52.614Z"></path>
</svg><style>@media (prefers-color-scheme: light) { :root { filter: none; } }
</style></svg>